<?xml version="1.0" standalone="no"?>
<!DOCTYPE svg PUBLIC "-//W3C//DTD SVG 20010904//EN"
 "http://www.w3.org/TR/2001/REC-SVG-20010904/DTD/svg10.dtd">
<svg version="1.0" xmlns="http://www.w3.org/2000/svg"
 width="512.000000pt" height="512.000000pt" viewBox="0 0 512.000000 512.000000"
 preserveAspectRatio="xMidYMid meet">
<metadata>
Created by potrace 1.11, written by Peter Selinger 2001-2013
</metadata>
<g transform="translate(0.000000,512.000000) scale(0.100000,-0.100000)"
fill="#000000" stroke="none">
<path d="M1707 5113 c-4 -3 -7 -233 -7 -510 l0 -503 -850 0 -850 0 0 -515 0
-515 850 0 850 0 0 -510 0 -510 -850 0 -850 0 0 -515 0 -515 850 0 850 0 0
-494 c0 -272 3 -501 6 -510 6 -15 166 -16 1710 -16 l1704 0 0 2560 0 2560
-1703 0 c-937 0 -1707 -3 -1710 -7z m2553 -1528 l0 -505 -850 0 -850 0 0 505
0 505 850 0 850 0 0 -505z m0 -2050 l0 -505 -850 0 -850 0 0 505 0 505 850 0
850 0 0 -505z"/>
</g>
</svg>
